<svg fill="none" height="12" viewBox="0 0 12 12" width="12" xmlns="http://www.w3.org/2000/svg">
    <path
        d="M5.5 5.25V5.25C5.77614 5.25 6 5.47386 6 5.75V7.25C6 7.52614 6.22386 7.75 6.5 7.75V7.75M6 4.25H6.005"
        stroke="#DC3545" stroke-linecap="round" stroke-linejoin="round" />
    <path
        d="M6.69459 9.93923C7.2119 9.84802 7.70618 9.6558 8.1492 9.37357C8.59222 9.09133 8.97532 8.7246 9.27661 8.29431C9.5779 7.86402 9.79149 7.37859 9.90518 6.86576C10.0189 6.35292 10.0304 5.82271 9.93923 5.30541C9.84802 4.7881 9.6558 4.29382 9.37357 3.8508C9.09133 3.40778 8.7246 3.02468 8.29431 2.72339C7.86401 2.4221 7.37859 2.20851 6.86576 2.09482C6.35292 1.98112 5.82271 1.96955 5.30541 2.06077C4.7881 2.15198 4.29382 2.3442 3.8508 2.62643C3.40778 2.90867 3.02468 3.2754 2.72339 3.70569C2.4221 4.13599 2.20851 4.62141 2.09482 5.13424C1.98112 5.64708 1.96955 6.17729 2.06077 6.69459C2.15198 7.2119 2.3442 7.70618 2.62643 8.1492C2.90867 8.59222 3.2754 8.97532 3.7057 9.27661C4.13599 9.5779 4.62141 9.79149 5.13424 9.90518C5.64708 10.0189 6.17729 10.0304 6.69459 9.93923L6.69459 9.93923Z"
        stroke="#DC3545" />
</svg>
